#!OML:ASF I:\Actors\actors\Patient Classification 2\Patient 1\Session 1\actor1.ASF
:FULLY-SPECIFIED
:DEGREES
617
root -0.552717 18.2352 4.92963 -0.381193 -1.78083 -4.78948
lowerback 9.65779 2.60928 6.81918
upperback 1.4056 4.328 3.7288
thorax -3.73169 2.06993 -0.476244
lowerneck -0.54988 -7.14516 -3.39353
upperneck 12.1935 -8.69487 -7.2402
head 3.90387 -4.73867 -2.12355
rclavicle 6.95746e-016 -3.97569e-015
rhumerus -13.5664 34.4216 -88.1307
rradius 133.494
rwrist -0.939573
rhand -23.0465 2.74049
rfingers 7.12502
rthumb 3.39824 -27.2122
lclavicle 6.95746e-016 -3.97569e-015
lhumerus -50.3567 -20.1599 105.527
lradius 85.1331
lwrist 20.103
lhand -6.76771 -12.0671
lfingers 7.12502
lthumb 19.0942 17.0156
rfemur 0 0 0
rtibia 0
rfoot 0 0
rtoes 0
lfemur 15.3944 -4.07459 -13.2615
ltibia -19.6663
lfoot -0.142641 19.419
ltoes -8.04387
618
root -0.557244 18.2359 4.92852 -0.353782 -1.53373 -4.82368
lowerback 9.60403 2.54923 6.99011
upperback 1.35837 4.26907 3.83728
thorax -3.75072 2.03772 -0.44914
lowerneck -0.66375 -7.10918 -3.53966
upperneck 12.4011 -8.60995 -7.34268
head 4.00564 -4.71467 -2.14727
rclavicle -3.598e-014 -1.66979e-014
rhumerus -13.438 34.4628 -87.9962
rradius 133.761
rwrist -0.616432
rhand -22.9164 2.58178
rfingers 7.12502
rthumb 3.52379 -27.3688
lclavicle -3.598e-014 -1.66979e-014
lhumerus -50.5072 -19.9842 105.617
lradius 85.152
lwrist 20.1757
lhand -6.92908 -12.0583
lfingers 7.12502
lthumb 18.939 17.0397
rfemur 0 0 0
rtibia 0
rfoot 0 0
rtoes 0
lfemur 15.3089 -4.12665 -13.1916
ltibia -19.6974
lfoot -0.0379125 19.2436
ltoes -8.09009
619
root -0.562801 18.2362 4.92958 -0.349087 -1.40466 -4.89936
lowerback 9.54172 2.5137 7.16314
upperback 1.31338 4.24057 3.92231
thorax -3.75904 2.02067 -0.450469
lowerneck -0.707775 -7.10127 -3.57797
upperneck 12.5559 -8.57178 -7.47645
head 4.06707 -4.70815 -2.19432
rclavicle 1.36167e-014 5.56597e-015
rhumerus -13.3525 34.184 -87.8597
rradius 133.186
rwrist -0.942122
rhand -22.733 2.69243
rfingers 7.12502
rthumb 3.70097 -27.2552
lclavicle 1.36167e-014 5.56597e-015
lhumerus -50.6625 -19.8302 105.637
lradius 85.1532
lwrist 20.2526
lhand -7.02861 -11.9429
lfingers 7.12502
lthumb 18.8433 17.1644
rfemur 0 0 0
rtibia 0
rfoot 0 0
rtoes 0
lfemur 15.2812 -4.15403 -13.0817
ltibia -19.7282
lfoot 0.0427241 19.1547
ltoes -8.13847
620
root -0.569941 18.2345 4.93248 -0.403394 -1.37266 -4.91449
lowerback 9.48489 2.48007 7.19227
upperback 1.33926 4.1939 3.98857
thorax -3.70589 1.99978 -0.388598
lowerneck -0.837743 -7.09299 -3.47693
upperneck 12.6144 -8.54003 -7.62434
head 4.10264 -4.69823 -2.26914
rclavicle -2.31584e-014 7.95139e-015
rhumerus -13.3207 33.9721 -87.739
rradius 132.313
rwrist -1.696
rhand -22.3728 1.89541
rfingers 7.12502
rthumb 4.04875 -28.0459
lclavicle -2.31584e-014 7.95139e-015
lhumerus -50.7047 -19.6895 105.586
lradius 85.1005
lwrist 20.2776
lhand -7.08011 -11.8343
lfingers 7.12502
lthumb 18.7938 17.2778
rfemur 0 0 0
rtibia 0
rfoot 0 0
rtoes 0
lfemur 15.3555 -4.14485 -13.0451
ltibia -19.7547
lfoot 0.0929053 19.0971
ltoes -8.37479
621
root -0.576294 18.2319 4.93488 -0.48016 -1.35704 -4.87307
lowerback 9.43412 2.44762 7.20282
upperback 1.40523 4.14149 3.99301
thorax -3.61081 1.9779 -0.37938
lowerneck -1.04488 -7.06445 -3.36828
upperneck 12.6412 -8.49908 -7.58072
head 4.15026 -4.67556 -2.28368
rclavicle -4.07509e-014 -7.95139e-016
rhumerus -13.3771 33.7433 -87.654
rradius 131.594
rwrist -2.44103
rhand -22.3404 1.21489
rfingers 7.12502
rthumb 4.08008 -28.7258
lclavicle -4.07509e-014 -7.95139e-016
lhumerus -50.6171 -19.7222 105.504
lradius 85.0183
lwrist 20.3042
lhand -7.09428 -11.7063
lfingers 7.12502
lthumb 18.7801 17.4071
rfemur 0 0 0
rtibia 0
rfoot 0 0
rtoes 0
lfemur 15.4579 -4.11191 -13.0711
ltibia -19.7726
lfoot 0.12517 19.0184
ltoes -8.61671
622
root -0.581595 18.2309 4.93545 -0.536884 -1.33844 -4.86232
lowerback 9.4433 2.44095 7.32804
upperback 1.4116 4.14335 3.94373
thorax -3.59648 1.97734 -0.499754
lowerneck -0.990801 -7.0485 -3.35486
upperneck 12.4906 -8.51799 -7.31937
head 4.09535 -4.66821 -2.18879
rclavicle -6.63941e-014 -4.05521e-014
rhumerus -13.7067 33.3822 -87.7527
rradius 131.846
rwrist -3.88424
rhand -21.8566 0.278306
rfingers 7.12502
rthumb 4.54728 -29.6529
lclavicle -6.63941e-014 -4.05521e-014
lhumerus -50.6281 -19.9091 105.455
lradius 84.9842
lwrist 20.3091
lhand -6.99189 -11.7257
lfingers 7.12502
lthumb 18.8786 17.3782
rfemur 0 0 0
rtibia 0
rfoot 0 0
rtoes 0
lfemur 15.5245 -4.15759 -13.0669
ltibia -19.7725
lfoot 0.101073 19.035
ltoes -8.53209
623
root -0.588226 18.2307 4.93509 -0.586857 -1.30574 -4.89499
lowerback 9.51069 2.43521 7.47257
upperback 1.36612 4.15997 3.91906
thorax -3.6687 1.98014 -0.611268
lowerneck -0.653597 -7.05617 -3.40866
upperneck 12.1387 -8.5868 -7.10764
head 3.91347 -4.68135 -2.07679
rclavicle -2.03754e-014 -6.36111e-014
rhumerus -14.4015 33.5989 -88.1678
rradius 132.305
rwrist -2.27776
rhand -22.7494 0.617233
rfingers 7.12502
rthumb 3.6851 -29.3307
lclavicle -2.03754e-014 -6.36111e-014
lhumerus -50.8219 -20.0188 105.477
lradius 85.0704
lwrist 20.3265
lhand -6.80817 -11.88
lfingers 7.12502
lthumb 19.0553 17.2066
rfemur 0 0 0
rtibia 0
rfoot 0 0
rtoes 0
lfemur 15.5714 -4.24774 -13.0138
ltibia -19.7528
lfoot 0.0489439 19.0976
ltoes -8.27424
624
root -0.595453 18.2292 4.93437 -0.66195 -1.24445 -4.8901
lowerback 9.57781 2.39158 7.55049
upperback 1.20211 4.1322 3.9484
thorax -3.87719 1.95552 -0.628276
lowerneck 0.199287 -7.01521 -3.64899
upperneck 11.7096 -8.60582 -6.99572
head 3.61359 -4.67217 -1.93677
rclavicle -9.93923e-017 2.38542e-014
rhumerus -15.2903 33.6994 -88.6734
rradius 133.174
rwrist -1.78089
rhand -22.7634 1.93496
rfingers 7.12502
rthumb 3.67154 -28.0132
lclavicle -9.93923e-017 2.38542e-014
lhumerus -51.3437 -19.8669 105.684
lradius 85.2372
lwrist 20.3481
lhand -6.76943 -11.9358
lfingers 7.12502
lthumb 19.0926 17.1471
rfemur 0 0 0
rtibia 0
rfoot 0 0
rtoes 0
lfemur 15.6348 -4.32284 -13.0029
ltibia -19.7308
lfoot 0.0157218 19.1052
ltoes -8.11629
625
root -0.602411 18.2278 4.93506 -0.737163 -1.14731 -4.82632
lowerback 9.63355 2.38777 7.52175
upperback 1.2912 4.1231 3.95111
thorax -3.81735 1.95507 -0.609107
lowerneck -0.105555 -7.01486 -3.59035
upperneck 11.6612 -8.58442 -7.08595
head 3.64815 -4.66597 -1.98872
rclavicle -3.00165e-014 -4.13472e-014
rhumerus -15.2894 33.5647 -88.6487
rradius 133.651
rwrist -1.25554
rhand -23.2148 3.62677
rfingers 7.12502
rthumb 3.2357 -26.3284
lclavicle -3.00165e-014 -4.13472e-014
lhumerus -51.2126 -19.9708 105.726
lradius 85.2472
lwrist 20.3182
lhand -6.96018 -11.9676
lfingers 7.12502
lthumb 18.9091 17.1333
rfemur 0 0 0
rtibia 0
rfoot 0 0
rtoes 0
lfemur 15.688 -4.39956 -13.0601
ltibia -19.7112
lfoot 0.00312383 19.075
ltoes -8.09843
